{"title":"The Warriors Way 2010 XViD BRRiP DTRG - SAFCuk009","uid":6273329,"size":1652685070,"categoryP":"video","categoryS":"movies","magnet":"?xt=urn:btih:973402cb97fdb622ebabc8f40edf06f7047f4a16&amp;dn=The+Warriors+Way+2010+XViD+BRRiP+DTRG+-+SAFCuk009&amp;tr=udp%3A%2F%2Ftracker.openbittorrent.com%3A80&amp;tr=udp%3A%2F%2Fopen.demonii.com%3A1337&amp;tr=udp%3A%2F%2Ftracker.coppersurfer.tk%3A6969&amp;tr=udp%3A%2F%2Fexodus.desync.com%3A6969","seeders":0,"leechers":1,"uploader":"SAFCukO09","files":3,"time":1301158047,"description":"Format                           : AVI\nFormat/Info                      : Audio Video Interleave\nFile size                        : 1.54 GiB\nDuration                         : 1h 34mn\nOverall bit rate                 : 2 330 Kbps\nWriting application              : VirtualDubMod 1.5.10.3 | www.virtualdub-fr.org || (build 2550/release)\nWriting library                  : VirtualDub build 32839/release\n\nVideo\nID                               : 0\nFormat                           : MPEG-4 Visual\nFormat profile                   : Advanced Simple@L5\nFormat settings, BVOP            : Yes\nFormat settings, QPel            : No\nFormat settings, GMC             : No warppoints\nFormat settings, Matrix          : Custom\nCodec ID                         : XVID\nCodec ID/Hint                    : XviD\nDuration                         : 1h 34mn\nBit rate                         : 1 873 Kbps\nWidth                            : 720 pixels\nHeight                           : 304 pixels\nDisplay aspect ratio             : 2.35:1\nFrame rate                       : 23.976 fps\nColor space                      : YUV\nChroma subsampling               : 4:2:0\nBit depth                        : 8 bits\nScan type                        : Progressive\nBits/(Pixel*Frame)               : 0.357\nStream size                      : 1.24 GiB (80%)\nWriting library                  : XviD 1.2.1 (UTC 2008-12-04)\n\nAudio\nID                               : 1\nFormat                           : AC-3\nFormat/Info                      : Audio Coding 3\nMode extension                   : CM (complete main)\nCodec ID                         : 2000\nDuration                         : 1h 34mn\nBit rate mode                    : Constant\nBit rate                         : 448 Kbps\nChannel(s)                       : 6 channels\nChannel positions                : Front: L C R, Side: L R, LFE\nSampling rate                    : 48.0 KHz\nBit depth                        : 16 bits\nStream size                      : 303 MiB (19%)\nAlignment                        : Split accross interleaves\nInterleave, duration             : 42 ms (1.00 video frame)\nInterleave, preload duration     : 500 ms\n\n\n\n &lt;a href=&quot;\nhttp://www.imdb.com/title/tt1032751/&quot; rel=&quot;nofollow&quot; target=&quot;_NEW&quot;&gt;\nhttp://www.imdb.com/title/tt1032751/&lt;/a&gt;\n\n\n\n\n\n\n\nUsers: 6.2/10 (1,748 votes) 43 reviews | Critics: 47 reviews Metascore: 45/100 (based on 11 reviews from Metacritic.com)\n\nA warrior-assassin is forced to hide in a small town in the American Badlands after refusing a mission.\nDirector:\nSngmoo Lee\nWriter:\nSngmoo Lee, and 1 more credit Ã‚Â»\nStars:\nDong-gun Jang, Kate Bosworth and Geoffrey Rush \n\n\n\n\n\n\n\n &lt;a href=&quot;\nhttp://img19.imageshack.us/img19/8067/vlcsnap2011032610h08m17.png&quot; rel=&quot;nofollow&quot; target=&quot;_NEW&quot;&gt;\nhttp://img19.imageshack.us/img19/8067/vlcsnap2011032610h08m17.png&lt;/a&gt; &lt;a href=&quot;\nhttp://img41.imageshack.us/img41/8726/vlcsnap2011032610h07m07.png&quot; rel=&quot;nofollow&quot; target=&quot;_NEW&quot;&gt;\nhttp://img41.imageshack.us/img41/8726/vlcsnap2011032610h07m07.png&lt;/a&gt; &lt;a href=&quot;\nhttp://img202.imageshack.us/img202/181/vlcsnap2011032610h07m14.png&quot; rel=&quot;nofollow&quot; target=&quot;_NEW&quot;&gt;\nhttp://img202.imageshack.us/img202/181/vlcsnap2011032610h07m14.png&lt;/a&gt; &lt;a href=&quot;\nhttp://img858.imageshack.us/img858/1228/vlcsnap2011032610h07m51.png&quot; rel=&quot;nofollow&quot; target=&quot;_NEW&quot;&gt;\nhttp://img858.imageshack.us/img858/1228/vlcsnap2011032610h07m51.png&lt;/a&gt;\n\n\nSource used \n\n\nThe Warriors Way 2010 720p BluRay X264-AMIABLE ............. Thanks \n\nDone a 720p of this as well coming later \n\n\n\n\nGreetz to Imagine ,Flawl3ss,DiLLoN,BDK,NOiR,TOXiCiNK,THC,Ez,Rx,\n\n\n\n","torrent":{"xt":"urn:btih:973402cb97fdb622ebabc8f40edf06f7047f4a16","amp;dn":"The+Warriors+Way+2010+XViD+BRRiP+DTRG+-+SAFCuk009","amp;tr":["udp%3A%2F%2Ftracker.openbittorrent.com%3A80","udp%3A%2F%2Fopen.demonii.com%3A1337","udp%3A%2F%2Ftracker.coppersurfer.tk%3A6969","udp%3A%2F%2Fexodus.desync.com%3A6969"],"infoHash":"973402cb97fdb622ebabc8f40edf06f7047f4a16","infoHashBuffer":{"type":"Buffer","data":[151,52,2,203,151,253,182,34,235,171,200,244,14,223,6,247,4,127,74,22]},"announce":[],"urlList":[]}}